<?xml version="1.0" encoding="utf-8"?>
<!-- Generator: Adobe Illustrator 20.1.0, SVG Export Plug-In . SVG Version: 6.00 Build 0)  -->
<svg version="1.1" id="Layer_1" xmlns="http://www.w3.org/2000/svg" xmlns:xlink="http://www.w3.org/1999/xlink" x="0px" y="0px"
	 viewBox="0 0 100 125" style="enable-background:new 0 0 100 125;" xml:space="preserve">
<style type="text/css">
	.st0{fill:#1B5E20;}
	.st1{fill:#00E676;}
	.st2{fill:#FF5252;}
	.st3{fill:#B71C1C;}
	.st4{fill:#FF8A80;}
	.st5{fill:#69F0AE;}
</style>
<g>
	<g>
		<path class="st0" d="M23.9,53.6c-0.1,0-0.2,0-0.3-0.1l-3.4-3.4c-0.9-1-1.5-2.2-1.5-3.6c0-2.8,2.3-5.1,5.1-5.1s5.1,2.3,5.1,5.1
			c0,1.3-0.5,2.6-1.5,3.6l-0.2-0.2l0.3,0.3l-3.4,3.4C24,53.6,23.9,53.6,23.9,53.6z"/>
		<g>
			<path class="st1" d="M23.9,41.7c2.7,0,4.8,2.2,4.8,4.8c0,1.3-0.5,2.5-1.3,3.4l0,0l0,0c0,0,0,0-0.1,0.1l-3.4,3.4l-3.4-3.4
				c0,0,0,0-0.1-0.1l0,0l0,0c-0.8-0.8-1.3-2-1.3-3.4C19,43.9,21.2,41.7,23.9,41.7 M23.9,41c-3,0-5.5,2.5-5.5,5.5
				c0,1.4,0.6,2.7,1.5,3.8c0,0,0,0,0.1,0.1l0,0l0.1,0.1l3.4,3.4c0.1,0.1,0.3,0.2,0.5,0.2s0.4-0.1,0.5-0.2l3.4-3.4l0.1-0.1l0,0
				c0,0,0,0,0.1-0.1c1-1,1.5-2.4,1.5-3.8C29.3,43.5,26.9,41,23.9,41L23.9,41z"/>
		</g>
	</g>
	<g>
		<g>
			<path class="st1" d="M27.8,45.7c-0.1-0.1-0.2,0-0.2,0.1l-0.2,0.4c-0.4-0.4-0.9-1.3-1.3-2.7c0-0.1-0.1-0.1-0.2-0.1l-3.1,0.6l0,0
				l0,0l0,0l0,0l0,0l0,0l0,0l0,0l0,0l0,0l0,0l0,0l0,0l0,0l0,0l0,0l0,0l0,0l0,0l0,0l0,0l0,0l0,0l0,0l0,0c-0.5,1.5-1.1,2.5-1.6,3
				c-0.4,0.4-0.6,0.7-0.8,0.8l-0.2-0.4c-0.1-0.1-0.1-0.1-0.2-0.1s-0.1,0.1-0.1,0.2l0.3,0.6l0,0l0,0l0,0l0,0l0,0l0,0l0,0l0,0l0,0l0,0
				l0,0l0,0l0,0l0,0l1.7,0.4c0.1,0,0.2-0.1,0.2-0.1l0.6-1.7v2c0,0.1,0.1,0.1,0.1,0.1h0.1c0.1,0,0.1,0,0.1-0.1
				c0.1-0.1,0.4-0.3,0.6-0.1c0.1,0.1,0.1,0.1,0.2,0.1c0.1-0.1,0.1-0.1,0.1-0.2c-0.6-1.6-0.7-1.8-0.8-2.7v-0.2c0-0.1-0.1-0.1-0.1-0.2
				s-0.1,0.1-0.2,0.1l-0.9,2.6l-1.1-0.2c0.2-0.1,0.4-0.4,0.7-0.8c0.4-0.6,1-1.4,1.5-2.7c0.5,1.7,1.1,2.8,1.6,3.6
				c0.3,0.4,0.5,0.7,0.7,0.9l-1-0.1c-0.1,0-0.2,0.1-0.2,0.1c0,0.1,0.1,0.2,0.1,0.2l1.5,0.2l0,0l0,0l0,0l0,0l0,0l0,0l0,0l0,0l0,0l0,0
				l0,0l0,0l0,0l0,0l0,0l0,0l0,0l0,0l0,0l0,0l0,0l0,0l0,0l0,0l2-2.9c0.1-0.1,0.1-0.1,0-0.2L27.8,45.7C27.9,45.8,27.9,45.8,27.8,45.7
				z M23,47.9c0.1,0.2,0.2,0.4,0.3,0.8c-0.1,0-0.2,0.1-0.3,0.1V47.9z M25.7,48.8l0.1-0.6c0-0.1-0.1-0.2-0.1-0.2
				c-0.1,0-0.2,0.1-0.2,0.1l-0.1,0.8c-0.1-0.2-0.4-0.5-0.6-0.9c-0.5-0.8-1.2-2-1.7-3.8l2.8-0.5c0.5,1.6,1.2,2.5,1.5,2.8L25.7,48.8z"
				/>
		</g>
	</g>
</g>
<g>
	<g>
		<path class="st1" d="M12.2,53.6c-0.1,0-0.2,0-0.3-0.1l-3.4-3.4c-0.9-1-1.5-2.2-1.5-3.6c0-2.8,2.3-5.1,5.1-5.1s5.1,2.3,5.1,5.1
			c0,1.3-0.5,2.6-1.5,3.6L15.4,50l0.3,0.3l-3.4,3.4C12.4,53.6,12.2,53.6,12.2,53.6z"/>
		<path class="st0" d="M12.2,41.7c2.7,0,4.8,2.2,4.8,4.8c0,1.3-0.5,2.5-1.3,3.4l0,0l0,0c0,0,0,0-0.1,0.1l-3.4,3.4l-3.4-3.4
			c0,0,0,0-0.1-0.1l0,0l0,0c-0.8-0.8-1.3-2-1.3-3.4C7.4,43.9,9.5,41.7,12.2,41.7 M12.2,41c-3,0-5.5,2.5-5.5,5.5
			c0,1.4,0.6,2.7,1.5,3.8c0,0,0,0,0.1,0.1l0,0v0.1l3.4,3.4c0.1,0.1,0.4,0.2,0.5,0.2c0.1,0,0.4-0.1,0.5-0.2l3.4-3.4l0.1-0.1l0,0
			c0,0,0,0,0.1-0.1c1-1,1.5-2.4,1.5-3.8C17.7,43.5,15.2,41,12.2,41L12.2,41z"/>
	</g>
	<g>
		<path class="st0" d="M16.1,45.7c-0.1-0.1-0.2,0-0.2,0.1l-0.2,0.4c-0.4-0.4-0.9-1.3-1.3-2.7c0-0.1-0.1-0.1-0.2-0.1L11.1,44l0,0l0,0
			l0,0l0,0l0,0l0,0l0,0l0,0l0,0l0,0l0,0l0,0l0,0l0,0l0,0l0,0l0,0l0,0l0,0l0,0l0,0l0,0l0,0l0,0l0,0c-0.5,1.5-1.1,2.5-1.6,3
			c-0.4,0.4-0.6,0.7-0.8,0.8l-0.2-0.4c-0.1-0.1-0.1-0.1-0.2-0.1c-0.1,0.1-0.1,0.1-0.1,0.2l0.3,0.6l0,0l0,0l0,0l0,0l0,0l0,0l0,0l0,0
			l0,0l0,0l0,0l0,0l0,0l0,0l1.7,0.3c0.1,0,0.2-0.1,0.2-0.1l0.6-1.7v2c0,0.1,0.1,0.1,0.1,0.1h0.1c0.1,0,0.1,0,0.1-0.1
			s0.4-0.3,0.6-0.1c0.1,0.1,0.1,0.1,0.2,0.1c0.1-0.1,0.1-0.1,0.1-0.2c-0.6-1.6-0.7-1.8-0.8-2.7v-0.2c0-0.1-0.1-0.1-0.1-0.2
			c-0.1-0.1-0.1,0.1-0.2,0.1l-0.9,2.6L9,47.9c0.2-0.1,0.4-0.4,0.7-0.8c0.4-0.6,1.1-1.4,1.5-2.7c0.5,1.7,1.1,2.8,1.6,3.6
			c0.3,0.4,0.5,0.7,0.7,0.9l-1-0.1c-0.1,0-0.2,0.1-0.2,0.1s0.1,0.2,0.1,0.2l1.5,0.2l0,0l0,0l0,0l0,0l0,0l0,0l0,0l0,0l0,0l0,0l0,0
			l0,0l0,0l0,0l0,0l0,0l0,0l0,0l0,0l0,0l0,0l0,0l0,0l0,0l2-2.9c0.1-0.1,0.1-0.1,0-0.2l0.3-0.5C16.3,45.8,16.2,45.8,16.1,45.7z
			 M11.3,47.9c0.1,0.2,0.2,0.4,0.3,0.8c-0.1,0-0.2,0.1-0.3,0.1V47.9z M14.1,48.8l0.1-0.6c0-0.1-0.1-0.2-0.1-0.2
			c-0.1,0-0.2,0.1-0.2,0.1l-0.1,0.8c-0.1-0.2-0.4-0.5-0.6-0.9c-0.5-0.8-1.2-2-1.7-3.8l2.8-0.5c0.5,1.6,1.2,2.5,1.5,2.8L14.1,48.8z"
			/>
	</g>
</g>
<g>
	<g>
		<path class="st2" d="M47.2,53.6c-0.1,0-0.2,0-0.3-0.1l-3.4-3.4c-0.9-1-1.5-2.2-1.5-3.6c0-2.8,2.3-5.1,5.1-5.1
			c2.8,0,5.1,2.3,5.1,5.1c0,1.3-0.5,2.6-1.5,3.6l-3.4,3.4C47.4,53.6,47.2,53.6,47.2,53.6z"/>
		<path class="st3" d="M47.2,41.7c2.7,0,4.8,2.2,4.8,4.8c0,1.3-0.5,2.5-1.3,3.4l0,0l0,0c0,0,0,0-0.1,0.1l-3.4,3.4l-3.4-3.4
			c0,0,0,0-0.1-0.1l0,0l0,0c-0.8-0.8-1.3-2-1.3-3.4C42.4,43.9,44.5,41.7,47.2,41.7 M47.2,41c-3,0-5.5,2.5-5.5,5.5
			c0,1.4,0.6,2.7,1.5,3.8c0,0,0,0,0.1,0.1l0,0l0.1,0.1l3.4,3.4c0.1,0.1,0.3,0.2,0.5,0.2c0.2,0,0.3-0.1,0.5-0.2l3.4-3.4l0.1-0.1l0,0
			c0,0,0,0,0.1-0.1c1-1,1.5-2.4,1.5-3.8C52.7,43.5,50.2,41,47.2,41L47.2,41z"/>
	</g>
	<g>
		<path class="st3" d="M51.1,45.7c-0.1-0.1-0.2,0-0.2,0.1l-0.2,0.4c-0.3-0.4-0.9-1.3-1.3-2.7c0-0.1-0.1-0.1-0.2-0.1L46.1,44l0,0l0,0
			l0,0l0,0l0,0l0,0l0,0l0,0l0,0l0,0l0,0l0,0l0,0l0,0l0,0l0,0l0,0l0,0l0,0l0,0l0,0l0,0l0,0l0,0l0,0c-0.5,1.5-1.1,2.5-1.6,3
			c-0.3,0.4-0.6,0.7-0.8,0.8l-0.2-0.4c-0.1-0.1-0.1-0.1-0.2-0.1c-0.1,0.1-0.1,0.1-0.1,0.2l0.3,0.6l0,0l0,0l0,0l0,0l0,0l0,0l0,0l0,0
			l0,0l0,0l0,0l0,0l0,0l0,0l1.7,0.3c0.1,0,0.2-0.1,0.2-0.1l0.6-1.7v2c0,0.1,0.1,0.1,0.1,0.1h0.1c0.1,0,0.1,0,0.1-0.1
			s0.4-0.3,0.6-0.1c0.1,0.1,0.1,0.1,0.2,0.1c0.1-0.1,0.1-0.1,0.1-0.2c-0.6-1.6-0.7-1.8-0.8-2.7v-0.2c0-0.1-0.1-0.1-0.1-0.2
			c-0.1,0-0.1,0.1-0.2,0.1l-0.9,2.6L44,47.9c0.2-0.1,0.4-0.4,0.7-0.8c0.4-0.6,1.1-1.4,1.5-2.7c0.5,1.7,1.1,2.8,1.6,3.6
			c0.3,0.4,0.5,0.7,0.7,0.9l-1-0.1c-0.1,0-0.2,0.1-0.2,0.1s0.1,0.2,0.1,0.2l1.5,0.2l0,0l0,0l0,0l0,0l0,0l0,0l0,0l0,0l0,0l0,0l0,0
			l0,0l0,0l0,0l0,0l0,0l0,0l0,0l0,0l0,0l0,0l0,0l0,0l0,0l2-2.9c0.1-0.1,0.1-0.1,0-0.2l0.3-0.5C51.3,45.8,51.2,45.8,51.1,45.7z
			 M46.3,47.9c0.1,0.2,0.2,0.4,0.3,0.8c-0.1,0-0.2,0.1-0.3,0.1V47.9z M49,48.8l0.1-0.6c0-0.1-0.1-0.2-0.1-0.2s-0.2,0.1-0.2,0.1
			l-0.1,0.8c-0.1-0.2-0.4-0.5-0.6-0.9c-0.5-0.8-1.2-2-1.7-3.8l2.8-0.5c0.5,1.6,1.2,2.5,1.5,2.8L49,48.8z"/>
	</g>
</g>
<g>
	<g>
		<path class="st4" d="M59,53.6c-0.1,0-0.2,0-0.3-0.1l-3.4-3.4c-0.9-1-1.5-2.2-1.5-3.6c0-2.8,2.3-5.1,5.1-5.1c2.8,0,5.1,2.3,5.1,5.1
			c0,1.3-0.5,2.6-1.5,3.6l-3.4,3.4C59.2,53.6,59.1,53.6,59,53.6z"/>
		<path class="st3" d="M59,41.7c2.7,0,4.8,2.2,4.8,4.8c0,1.3-0.5,2.5-1.3,3.4l0,0l0,0c0,0,0,0-0.1,0.1L59,53.2l-3.4-3.4
			c0,0,0,0-0.1-0.1l0,0l0,0c-0.8-0.8-1.3-2-1.3-3.4C54.2,43.9,56.3,41.7,59,41.7 M59,41c-3,0-5.5,2.5-5.5,5.5c0,1.4,0.6,2.7,1.5,3.8
			c0,0,0,0,0.1,0.1l0,0l0.1,0.1l3.4,3.4c0.1,0.1,0.3,0.2,0.5,0.2c0.2,0,0.3-0.1,0.5-0.2l3.4-3.4l0.1-0.1l0,0c0,0,0,0,0.1-0.1
			c1-1,1.5-2.4,1.5-3.8C64.5,43.5,62,41,59,41L59,41z"/>
	</g>
	<g>
		<path class="st3" d="M63,45.7c-0.1-0.1-0.2,0-0.2,0.1l-0.2,0.4c-0.4-0.4-0.9-1.3-1.3-2.7c0-0.1-0.1-0.1-0.2-0.1L57.9,44l0,0l0,0
			l0,0l0,0l0,0l0,0l0,0l0,0l0,0l0,0l0,0l0,0l0,0l0,0l0,0l0,0l0,0l0,0l0,0l0,0l0,0l0,0l0,0l0,0l0,0c-0.5,1.5-1.1,2.5-1.6,3
			c-0.3,0.4-0.6,0.7-0.8,0.8l-0.2-0.4c-0.1-0.1-0.1-0.1-0.2-0.1c-0.1,0.1-0.1,0.1-0.1,0.2l0.3,0.6l0,0l0,0l0,0l0,0l0,0l0,0l0,0l0,0
			l0,0l0,0l0,0l0,0l0,0l0,0l1.7,0.3c0.1,0,0.2-0.1,0.2-0.1l0.6-1.7v2c0,0.1,0.1,0.1,0.1,0.1H58c0.1,0,0.1,0,0.1-0.1s0.4-0.3,0.6-0.1
			c0.1,0.1,0.1,0.1,0.2,0.1c0.1-0.1,0.1-0.1,0.1-0.2c-0.6-1.6-0.7-1.8-0.8-2.7v-0.2c0-0.1-0.1-0.1-0.1-0.2c-0.1,0-0.1,0.1-0.2,0.1
			L57,48.1l-1.1-0.2c0.2-0.1,0.4-0.4,0.7-0.8c0.4-0.6,1.1-1.4,1.5-2.7c0.5,1.7,1.1,2.8,1.6,3.6c0.3,0.4,0.5,0.7,0.7,0.9l-1-0.1
			c-0.1,0-0.2,0.1-0.2,0.1s0.1,0.2,0.1,0.2l1.5,0.2l0,0l0,0l0,0l0,0l0,0l0,0l0,0l0,0l0,0l0,0l0,0l0,0l0,0l0,0l0,0l0,0l0,0l0,0l0,0
			l0,0l0,0l0,0l0,0l0,0l2-2.9c0.1-0.1,0.1-0.1,0-0.2l0.3-0.5C63.1,45.8,63,45.8,63,45.7z M58.1,47.9c0.1,0.2,0.2,0.4,0.3,0.8
			c-0.1,0-0.2,0.1-0.3,0.1V47.9z M60.9,48.8l0.1-0.6c0-0.1-0.1-0.2-0.1-0.2s-0.2,0.1-0.2,0.1l-0.1,0.8c-0.1-0.2-0.4-0.5-0.6-0.9
			c-0.5-0.8-1.2-2-1.7-3.8l2.8-0.5c0.5,1.6,1.2,2.5,1.5,2.8L60.9,48.8z"/>
	</g>
</g>
<g>
	<g>
		<path class="st5" d="M35.5,53.6c-0.1,0-0.2,0-0.3-0.1l-3.4-3.4c-0.9-1-1.5-2.2-1.5-3.6c0-2.8,2.3-5.1,5.1-5.1
			c2.8,0,5.1,2.3,5.1,5.1c0,1.3-0.5,2.6-1.5,3.6l-3.4,3.4C35.7,53.6,35.6,53.6,35.5,53.6z"/>
		<path class="st0" d="M35.5,41.7c2.7,0,4.8,2.2,4.8,4.8c0,1.3-0.5,2.5-1.3,3.4l0,0l0,0c0,0,0,0-0.1,0.1l-3.4,3.4l-3.4-3.4
			c0,0,0,0-0.1-0.1l0,0l0,0c-0.8-0.8-1.3-2-1.3-3.4C30.7,43.9,32.9,41.7,35.5,41.7 M35.5,41c-3,0-5.5,2.5-5.5,5.5
			c0,1.4,0.6,2.7,1.5,3.8c0,0,0,0,0.1,0.1l0,0l0.1,0.1l3.4,3.4c0.1,0.1,0.4,0.2,0.5,0.2c0.2,0,0.3-0.1,0.5-0.2l3.4-3.4l0.1-0.1l0,0
			c0,0,0,0,0.1-0.1c1-1,1.5-2.4,1.5-3.8C41,43.5,38.5,41,35.5,41L35.5,41z"/>
	</g>
	<g>
		<path class="st0" d="M39.5,45.7c-0.1-0.1-0.2,0-0.2,0.1L39,46.2c-0.3-0.4-0.9-1.3-1.3-2.7c0-0.1-0.1-0.1-0.2-0.1l-3.2,0.6l0,0l0,0
			l0,0l0,0l0,0l0,0l0,0l0,0l0,0l0,0l0,0l0,0l0,0l0,0l0,0l0,0l0,0l0,0l0,0l0,0l0,0l0,0l0,0l0,0l0,0c-0.5,1.5-1.1,2.5-1.6,3
			c-0.3,0.4-0.6,0.7-0.8,0.8l-0.2-0.4c-0.1-0.1-0.1-0.1-0.2-0.1s-0.1,0.1-0.1,0.2l0.3,0.6l0,0l0,0l0,0l0,0l0,0l0,0l0,0l0,0l0,0l0,0
			l0,0l0,0l0,0l0,0l1.7,0.6c0.1,0,0.2-0.1,0.2-0.1l0.6-1.7v2c0,0.1,0.1,0.1,0.1,0.1h0.1c0.1,0,0.1,0,0.1-0.1
			c0.1-0.1,0.4-0.3,0.6-0.1c0.1,0.1,0.1,0.1,0.2,0.1c0.1-0.1,0.1-0.1,0.1-0.2c-0.6-1.6-0.7-1.8-0.8-2.7v-0.2c0-0.1-0.1-0.1-0.1-0.2
			c-0.1,0-0.1,0.1-0.2,0.1l-0.9,2.6l-1.1-0.2c0.2-0.1,0.4-0.4,0.7-0.8c0.4-0.6,1-1.4,1.5-2.7c0.5,1.7,1.1,2.8,1.6,3.6
			c0.3,0.4,0.5,0.7,0.7,0.9L35.7,49c-0.1,0-0.2,0.1-0.2,0.1c0,0.1,0.1,0.2,0.1,0.2l1.5,0.2l0,0l0,0l0,0l0,0l0,0l0,0l0,0l0,0l0,0l0,0
			l0,0l0,0l0,0l0,0l0,0l0,0l0,0l0,0l0,0l0,0l0,0l0,0l0,0l0,0l2-2.9c0.1-0.1,0.1-0.1,0-0.2l0.3-0.5C39.6,45.8,39.5,45.8,39.5,45.7z
			 M34.7,47.9c0.1,0.2,0.2,0.4,0.3,0.8c-0.1,0-0.2,0.1-0.3,0.1V47.9z M37.4,48.8l0.1-0.6c0-0.1-0.1-0.2-0.1-0.2
			c-0.1,0-0.2,0.1-0.2,0.1L37,49c-0.1-0.2-0.4-0.5-0.6-0.9c-0.5-0.8-1.2-2-1.7-3.8l2.8-0.5c0.5,1.6,1.2,2.5,1.5,2.8L37.4,48.8z"/>
	</g>
</g>
</svg>
